<svg width="174" height="74" viewBox="0 0 174 74" fill="none" xmlns="http://www.w3.org/2000/svg">
<path d="M68.614 46.8814C66.469 46.8917 64.324 46.8968 62.1738 46.902C61.1502 46.902 59.8539 46.902 58.8303 46.9071C59.3087 46.7065 60.286 46.2178 61.0679 45.1633C62.1738 43.6767 62.1378 42.077 62.1121 41.6038C62.1018 41.0019 62.0967 40.3949 62.0864 39.7931C62.0761 38.79 62.0606 37.787 62.0504 36.7891H61.3868C60.2397 36.7891 59.2418 37.0411 58.3982 37.5555C57.8735 37.8796 57.534 38.2139 57.4569 38.2911C56.4795 39.289 56.2223 40.539 56.0629 41.3054C56.0011 41.614 55.9651 41.8764 55.9445 42.0513C55.8211 42.6274 55.4404 43.9905 54.2368 45.1582C52.4724 46.8711 50.2657 46.8814 49.8027 46.8763V52.0202H55.9394V65.8778C55.9394 65.955 55.9394 66.0167 55.9497 66.0836C55.9857 67.673 56.4795 68.9384 57.4414 69.9106C58.4496 70.9188 59.7665 71.423 61.3817 71.423H68.3105V66.2688H63.5575C62.6882 66.2688 62.2304 65.8315 62.1841 64.9725C62.1738 64.9159 62.1738 64.8593 62.1738 64.7976V52.0253H68.8969C68.8043 50.3124 68.7117 48.5943 68.6191 46.8814H68.614Z" fill="#FC004E"/>
<path d="M13.0589 10.1232C14.7564 9.48021 15.4199 8.63147 15.7029 7.95762C16.0835 7.05229 15.9446 6.0338 16.7213 5.46282C17.066 5.22106 17.4518 5.15419 17.709 5.1439H21.9681V0H15.5331C14.386 0 13.3881 0.252051 12.5445 0.766441C12.061 1.0545 11.742 1.36313 11.6032 1.50202C10.667 2.44335 10.3532 3.52872 10.2297 4.07911C10.2297 4.50091 10.1474 6.65621 8.38308 8.37427C6.53642 10.1695 4.24738 10.1129 3.85645 10.0923V15.2362H10.096V34.639H16.3355V15.2362H22.7706V10.0923C19.5402 10.1026 16.2995 10.1129 13.0692 10.1181L13.0589 10.1232Z" fill="#FC004E"/>
<path d="M48.2936 24.2273C49.2195 24.2479 50.1505 24.2736 51.0816 24.2993C52.0178 24.3251 52.9488 24.3508 53.8747 24.3765C53.9622 24.0884 54.0702 23.5895 53.9982 22.9774C53.885 22.036 53.4118 21.4239 53.3192 21.3107C52.5682 20.3694 51.5085 20.1791 51.2359 20.1379L48.3039 19.9425C48.3039 19.5978 48.2936 19.2583 48.2936 18.9137V18.8468C48.2936 18.0084 48.2113 14.3922 45.4645 11.8151C43.016 9.51577 39.9348 9.39746 37.8 9.39746C35.6653 9.39746 33.8958 9.71638 32.4298 10.3594C30.9638 11.0024 29.7858 11.846 28.9165 12.8799C28.0369 13.9241 27.4042 15.066 27.0133 16.3263L32.7487 18.2501C32.9802 17.1287 33.4792 16.2131 34.2353 15.5033C35.0018 14.7934 36.1489 14.4385 37.6972 14.4385C39.2455 14.4385 40.444 14.814 41.159 15.5599C41.8894 16.2954 42.2495 17.2522 42.2495 18.3993V19.7881H35.5161C33.6695 19.7881 32.0337 20.0762 30.5934 20.6472C29.1531 21.2284 28.0369 22.0875 27.2242 23.2243C26.4217 24.3611 26.0205 25.7756 26.0205 27.4526C26.0205 29.1295 26.4217 30.5595 27.2242 31.7374C28.0369 32.9051 29.1274 33.8001 30.5214 34.4071C31.9051 35.0141 33.474 35.3227 35.2178 35.3227C36.9616 35.3227 38.2887 35.0707 39.2815 34.5769C40.2691 34.083 40.9995 33.5121 41.4574 32.8794C41.9255 32.2364 42.2135 31.7117 42.3524 31.3208H43.2886V31.3671C43.2886 32.3547 43.6898 33.152 44.4768 33.7384C45.269 34.3351 46.2772 34.6334 47.5014 34.6334H51.6577V29.4793H49.6773C49.2504 29.4793 48.9212 29.3764 48.6897 29.1603C48.1959 28.7025 48.2885 28.0492 48.2987 28.003V24.2222L48.2936 24.2273ZM42.2547 24.9372C42.2547 26.5524 41.7043 27.8486 40.5932 28.8208C39.4924 29.793 38.0624 30.2766 36.3186 30.2766C35.0018 30.2766 33.9936 29.9988 33.3043 29.4381C32.6047 28.8774 32.2601 28.1521 32.2601 27.2622C32.2601 26.3723 32.5944 25.6728 33.2477 25.179C33.9113 24.6851 34.8166 24.4434 35.974 24.4434H42.2598V24.9372H42.2547Z" fill="#FC004E"/>
<path d="M90.629 13.5844C89.8832 12.2778 88.8904 11.3056 87.661 10.6626C86.4213 10.0196 85.0479 9.69043 83.5253 9.69043C81.6478 9.69043 80.1921 10.0454 79.1736 10.7346C78.1448 11.4239 77.3526 12.3035 76.7919 13.358H75.9072C75.3465 12.2675 74.5338 11.3879 73.4793 10.7089C72.4248 10.0351 71.0256 9.69043 69.2767 9.69043C67.6615 9.69043 66.355 9.99906 65.3622 10.6163C64.3746 11.2233 63.6647 11.9435 63.2326 12.7613H62.3479V10.0917H56.2061V34.6383H62.4456V20.1377C62.4456 18.4556 62.8365 17.1594 63.6133 16.254C64.39 15.3487 65.4805 14.8909 66.9002 14.8909C68.1605 14.8909 69.1327 15.2253 69.822 15.9094C70.5112 16.5833 70.8559 17.6017 70.8559 18.9546V34.6383H77.0954V20.1377C77.0954 18.4556 77.4864 17.1594 78.2631 16.254C79.0398 15.3487 80.1303 14.8909 81.5501 14.8909C82.8 14.8909 83.7825 15.2253 84.4718 15.9094C85.1611 16.5833 85.5057 17.6017 85.5057 18.9546V34.6383H91.7453V18.5019C91.7453 16.5215 91.3698 14.8806 90.6342 13.5792L90.629 13.5844Z" fill="#FC004E"/>
<path d="M122.553 22.3807C122.46 21.0536 122.275 19.9271 121.992 18.9909L116.503 20.6987C116.848 21.6606 117.007 22.6945 116.961 23.8159C116.915 24.9373 116.272 26.1152 115.027 27.3446C113.823 28.5586 112.424 29.2118 110.835 29.3044C109.245 29.397 107.836 28.8723 106.596 27.7355L119.23 15.1021L117.728 13.6001C115.953 11.8255 114.05 10.6115 112.002 9.9788C109.965 9.33581 107.934 9.25865 105.917 9.76275C103.901 10.2669 102.044 11.3676 100.341 13.0703C98.6128 14.7986 97.4555 16.6813 96.8845 18.7286C96.3135 20.7656 96.3444 22.818 96.9617 24.8807C97.5789 26.9434 98.8032 28.8878 100.614 30.7087L101.036 31.1305C102.857 32.9515 104.806 34.1654 106.879 34.7724C108.962 35.3794 111.025 35.3897 113.077 34.8084C115.125 34.222 117.018 33.0646 118.746 31.3466C120.336 29.7571 121.39 28.1985 121.91 26.6708C122.434 25.1482 122.645 23.7182 122.553 22.3859V22.3807ZM102.229 20.6987C102.322 19.3921 102.965 18.1473 104.153 16.9539C105.29 15.8171 106.524 15.1896 107.841 15.0867C109.168 14.9838 110.372 15.385 111.462 16.2904L103.35 24.4126C102.512 23.2449 102.136 22.0052 102.229 20.6987Z" fill="#FC004E"/>
<path d="M97.3988 51.9795C96.2775 50.0917 94.7497 48.6669 92.7951 47.6741C90.8507 46.6865 88.6594 46.1875 86.2109 46.1875C83.7624 46.1875 81.5814 46.6813 79.6267 47.6741C77.6823 48.6617 76.1545 50.0917 75.0332 51.9795C73.9015 53.8571 73.3408 56.1152 73.3408 58.7592V59.5514C73.3408 62.185 73.9015 64.4432 75.0332 66.331C76.1545 68.2085 77.6823 69.6437 79.6267 70.6365C81.5762 71.6241 83.7727 72.1231 86.2109 72.1231C88.6491 72.1231 90.8507 71.6292 92.7951 70.6365C94.7446 69.6488 96.2775 68.2085 97.3988 66.331C98.5202 64.4432 99.0809 62.185 99.0809 59.5514V58.7592C99.0809 56.1152 98.5202 53.8571 97.3988 51.9795ZM97.4349 59.0421C90.47 61.3929 88.5668 63.2961 86.216 70.261C83.8652 63.2961 81.962 61.3929 74.9972 59.0421C81.962 56.6913 83.8652 54.7881 86.216 47.8233C88.5668 54.7881 90.47 56.6913 97.4349 59.0421Z" fill="#FC004E"/>
<path d="M127.392 51.4083C126.6 49.8754 125.489 48.6718 124.048 47.7973C122.608 46.9177 120.941 46.4805 119.023 46.4805C116.811 46.4805 115.165 46.8714 114.074 47.6481C112.989 48.4249 112.243 49.2427 111.852 50.0966H110.957V46.8868H104.82V71.4335H111.06V58.9596C111.06 56.6808 111.585 54.9062 112.639 53.6356C113.704 52.3651 115.19 51.7324 117.094 51.7324C118.786 51.7324 120.072 52.2005 120.988 53.1212C121.893 54.0471 122.34 55.4257 122.34 57.2775V71.4335H128.58V56.7837C128.58 54.7364 128.189 52.9464 127.392 51.4135V51.4083Z" fill="#FC004E"/>
<path d="M135.309 46.8809V71.4276H141.548V46.8809H135.309Z" fill="#FC004E"/>
<path d="M165.889 56.0688C166.82 57.3805 167.288 58.7231 167.288 60.0965C167.288 61.4699 166.619 62.8228 165.287 64.155C164.402 65.0398 163.41 65.6468 162.314 65.976C161.223 66.3 160.087 66.2846 158.919 65.9348C157.751 65.585 156.62 64.8649 155.524 63.7692L155.174 63.4195C154.079 62.3238 153.353 61.187 153.003 60.0193C152.659 58.8568 152.649 57.72 152.973 56.6346C153.297 55.5338 153.904 54.5411 154.788 53.6563C155.678 52.7664 156.584 52.1903 157.51 51.928C158.425 51.6553 159.33 51.6399 160.215 51.8765C161.105 52.108 161.944 52.5247 162.736 53.1316L166.09 47.9569C164.577 46.9075 162.947 46.2388 161.193 45.961C159.449 45.6833 157.684 45.8479 155.91 46.4497C154.14 47.0567 152.422 48.1935 150.766 49.8498C149.089 51.5268 147.921 53.394 147.253 55.4618C146.584 57.5297 146.522 59.613 147.062 61.7425C147.592 63.867 148.806 65.8731 150.694 67.7661L151.183 68.2547C153.076 70.1477 155.076 71.3565 157.211 71.8915C159.331 72.4264 161.424 72.3647 163.492 71.7011C165.56 71.0376 167.427 69.8648 169.104 68.1878C170.781 66.5109 171.897 64.8134 172.499 63.0388C173.106 61.2693 173.27 59.5049 172.988 57.756C172.715 56.0071 172.103 54.361 171.172 52.823L165.889 56.0688Z" fill="#FC004E"/>
<path d="M143.04 40.077C140.175 41.044 139.393 41.8259 138.426 44.691C137.459 41.8259 136.677 41.044 133.812 40.077C136.677 39.1099 137.459 38.328 138.426 35.4629C139.393 38.328 140.175 39.1099 143.04 40.077Z" fill="#FC004E"/>
<path d="M64.7575 48.6304C62.6125 48.6407 60.4675 48.6459 58.3174 48.651C57.2937 48.651 55.9975 48.651 54.9738 48.6561C55.4522 48.4555 56.4296 47.9669 57.2114 46.9124C58.3174 45.4258 58.2814 43.826 58.2556 43.3528C58.2454 42.7509 58.2402 42.144 58.2299 41.5421C58.2196 40.5391 58.2042 39.536 58.1939 38.5381H57.5304C56.3833 38.5381 55.3853 38.7901 54.5417 39.3045C54.0171 39.6286 53.6776 39.9629 53.6004 40.0401C52.6231 41.038 52.3659 42.288 52.2064 43.0544C52.1447 43.3631 52.1087 43.6254 52.0881 43.8003C51.9647 44.3764 51.584 45.7396 50.3803 46.9072C48.616 48.6201 46.4092 48.6304 45.9463 48.6253V53.7692H52.083V67.6269C52.083 67.704 52.083 67.7657 52.0932 67.8326C52.1293 69.4221 52.6231 70.6875 53.585 71.6597C54.5932 72.6679 55.91 73.172 57.5252 73.172H64.454V68.0178H59.7011C58.8318 68.0178 58.374 67.5806 58.3277 66.7215C58.3174 66.6649 58.3174 66.6084 58.3174 66.5466V53.7743H65.0404C64.9479 52.0614 64.8553 50.3433 64.7627 48.6304H64.7575Z" fill="#00E7F9"/>
<path d="M9.20244 11.8722C10.8999 11.2292 11.5635 10.3805 11.8464 9.70664C12.2271 8.80131 12.0882 7.78282 12.8649 7.21185C13.2095 6.97008 13.5953 6.90321 13.8525 6.89293H18.1117V1.74902H11.6767C10.5296 1.74902 9.53165 2.00107 8.68805 2.51546C8.20452 2.80352 7.8856 3.11216 7.74671 3.25104C6.81052 4.19238 6.49675 5.27774 6.37329 5.82814C6.37329 6.24994 6.29099 8.40523 4.52663 10.1233C2.67997 11.9185 0.390936 11.8619 0 11.8414V16.9853H6.23955V36.3881H12.4791V16.9853H18.9141V11.8414C15.6838 11.8516 12.4431 11.8619 9.21273 11.8671L9.20244 11.8722Z" fill="#00E7F9"/>
<path d="M44.4372 25.9764C45.3631 25.9969 46.2941 26.0226 47.2251 26.0484C48.1613 26.0741 49.0924 26.0998 50.0183 26.1255C50.1057 25.8375 50.2138 25.3385 50.1417 24.7264C50.0286 23.7851 49.5553 23.1729 49.4627 23.0598C48.7117 22.1184 47.6521 21.9281 47.3795 21.887L44.4474 21.6915C44.4474 21.3468 44.4372 21.0073 44.4372 20.6627V20.5958C44.4372 19.7574 44.3549 16.1412 41.608 13.5641C39.1595 11.2648 36.0783 11.1465 33.9436 11.1465C31.8089 11.1465 30.0394 11.4654 28.5734 12.1084C27.1074 12.7514 25.9294 13.595 25.0601 14.6289C24.1805 15.6731 23.5478 16.8151 23.1568 18.0753L28.8923 19.9991C29.1238 18.8778 29.6227 17.9622 30.3789 17.2523C31.1453 16.5424 32.2924 16.1875 33.8407 16.1875C35.389 16.1875 36.5876 16.563 37.3026 17.3089C38.033 18.0445 38.3931 19.0012 38.3931 20.1483V21.5372H31.6597C29.813 21.5372 28.1773 21.8252 26.737 22.3962C25.2967 22.9775 24.1805 23.8365 23.3677 24.9733C22.5653 26.1101 22.1641 27.5247 22.1641 29.2016C22.1641 30.8785 22.5653 32.3085 23.3677 33.4865C24.1805 34.6541 25.271 35.5492 26.665 36.1561C28.0487 36.7631 29.6176 37.0718 31.3614 37.0718C33.1051 37.0718 34.4323 36.8197 35.425 36.3259C36.4127 35.8321 37.1431 35.2611 37.6009 34.6284C38.069 33.9854 38.3571 33.4607 38.4959 33.0698H39.4321V33.1161C39.4321 34.1037 39.8334 34.901 40.6204 35.4874C41.4125 36.0841 42.4207 36.3825 43.645 36.3825H47.8013V31.2283H45.8209C45.3939 31.2283 45.0647 31.1254 44.8332 30.9094C44.3394 30.4515 44.432 29.7983 44.4423 29.752V25.9712L44.4372 25.9764ZM38.3982 26.6862C38.3982 28.3014 37.8478 29.5977 36.7367 30.5699C35.6359 31.5421 34.2059 32.0256 32.4622 32.0256C31.1453 32.0256 30.1371 31.7478 29.4478 31.1871C28.7483 30.6264 28.4036 29.9012 28.4036 29.0113C28.4036 28.1214 28.738 27.4218 29.3912 26.928C30.0548 26.4342 30.9601 26.1924 32.1175 26.1924H38.4034V26.6862H38.3982Z" fill="#00E7F9"/>
<path d="M86.7726 15.3334C86.0267 14.0268 85.034 13.0546 83.8046 12.4117C82.5649 11.7687 81.1915 11.4395 79.6689 11.4395C77.7913 11.4395 76.3356 11.7944 75.3171 12.4837C74.2883 13.1729 73.4962 14.0526 72.9355 15.1071H72.0508C71.4901 14.0165 70.6773 13.1369 69.6228 12.4579C68.5683 11.7841 67.1692 11.4395 65.4203 11.4395C63.8051 11.4395 62.4985 11.7481 61.5058 12.3654C60.5181 12.9723 59.8083 13.6925 59.3762 14.5104H58.4914V11.8407H52.3496V36.3874H58.5892V21.8867C58.5892 20.2047 58.9801 18.9084 59.7568 18.0031C60.5336 17.0977 61.6241 16.6399 63.0438 16.6399C64.304 16.6399 65.2762 16.9743 65.9655 17.6584C66.6548 18.3323 66.9994 19.3508 66.9994 20.7036V36.3874H73.239V21.8867C73.239 20.2047 73.6299 18.9084 74.4067 18.0031C75.1834 17.0977 76.2739 16.6399 77.6936 16.6399C78.9436 16.6399 79.9261 16.9743 80.6153 17.6584C81.3046 18.3323 81.6493 19.3508 81.6493 20.7036V36.3874H87.8888V20.251C87.8888 18.2706 87.5133 16.6296 86.7777 15.3282L86.7726 15.3334Z" fill="#00E7F9"/>
<path d="M118.696 24.1298C118.604 22.8026 118.418 21.6761 118.135 20.7399L112.647 22.4477C112.992 23.4096 113.151 24.4435 113.105 25.5649C113.058 26.6863 112.415 27.8642 111.171 29.0936C109.967 30.3076 108.568 30.9609 106.978 31.0535C105.389 31.146 103.979 30.6214 102.74 29.4846L115.373 16.8511L113.871 15.3491C112.096 13.5745 110.193 12.3605 108.146 11.7278C106.109 11.0848 104.077 11.0077 102.061 11.5118C100.044 12.0159 98.1874 13.1167 96.4848 14.8193C94.7564 16.5477 93.599 18.4303 93.0281 20.4776C92.4571 22.5146 92.4879 24.567 93.1052 26.6297C93.7225 28.6924 94.9467 30.6368 96.7574 32.4577L97.1792 32.8795C99.0001 34.7005 100.95 35.9144 103.023 36.5214C105.106 37.1284 107.169 37.1387 109.221 36.5574C111.268 35.971 113.161 34.8136 114.89 33.0956C116.479 31.5061 117.534 29.9475 118.053 28.4198C118.578 26.8972 118.789 25.4672 118.696 24.1349V24.1298ZM98.3726 22.4477C98.4652 21.1412 99.1081 19.8963 100.296 18.703C101.433 17.5661 102.668 16.9386 103.985 16.8357C105.312 16.7328 106.515 17.1341 107.606 18.0394L99.4939 26.1616C98.6555 24.9939 98.28 23.7543 98.3726 22.4477Z" fill="#00E7F9"/>
<path d="M93.5424 53.7286C92.421 51.8407 90.8933 50.4159 88.9386 49.4231C86.9942 48.4355 84.8029 47.9365 82.3544 47.9365C79.9059 47.9365 77.7249 48.4303 75.7702 49.4231C73.8258 50.4107 72.2981 51.8407 71.1767 53.7286C70.0451 55.6061 69.4844 57.8643 69.4844 60.5082V61.3004C69.4844 63.9341 70.0451 66.1922 71.1767 68.08C72.2981 69.9576 73.8258 71.3927 75.7702 72.3855C77.7198 73.3731 79.9162 73.8721 82.3544 73.8721C84.7926 73.8721 86.9942 73.3783 88.9386 72.3855C90.8882 71.3979 92.421 69.9576 93.5424 68.08C94.6638 66.1922 95.2245 63.9341 95.2245 61.3004V60.5082C95.2245 57.8643 94.6638 55.6061 93.5424 53.7286ZM93.5784 60.7911C86.6136 63.1419 84.7103 65.0451 82.3596 72.01C80.0088 65.0451 78.1056 63.1419 71.1407 60.7911C78.1056 58.4404 80.0088 56.5371 82.3596 49.5723C84.7103 56.5371 86.6136 58.4404 93.5784 60.7911Z" fill="#00E7F9"/>
<path d="M123.535 53.1573C122.743 51.6245 121.632 50.4208 120.192 49.5463C118.751 48.6667 117.085 48.2295 115.166 48.2295C112.954 48.2295 111.308 48.6204 110.218 49.3972C109.132 50.1739 108.387 50.9918 107.996 51.8457H107.101V48.6359H100.964V73.1826H107.203V60.7086C107.203 58.4298 107.728 56.6552 108.783 55.3847C109.847 54.1141 111.334 53.4814 113.237 53.4814C114.93 53.4814 116.216 53.9495 117.131 54.8703C118.036 55.7962 118.484 57.1747 118.484 59.0265V73.1826H124.724V58.5327C124.724 56.4855 124.333 54.6954 123.535 53.1625V53.1573Z" fill="#00E7F9"/>
<path d="M131.452 48.6299V73.1766H137.692V48.6299H131.452Z" fill="#00E7F9"/>
<path d="M162.033 57.8178C162.964 59.1295 163.432 60.4721 163.432 61.8455C163.432 63.2189 162.763 64.5718 161.431 65.904C160.546 66.7888 159.553 67.3958 158.458 67.725C157.367 68.0491 156.23 68.0336 155.063 67.6838C153.895 67.3341 152.763 66.6139 151.668 65.5183L151.318 65.1685C150.222 64.0728 149.497 62.936 149.147 61.7684C148.802 60.6058 148.792 59.469 149.116 58.3837C149.44 57.2829 150.047 56.2901 150.932 55.4053C151.822 54.5155 152.727 53.9393 153.653 53.677C154.569 53.4044 155.474 53.3889 156.359 53.6256C157.249 53.857 158.087 54.2737 158.879 54.8807L162.233 49.7059C160.721 48.6565 159.09 47.9878 157.336 47.7101C155.592 47.4323 153.828 47.5969 152.053 48.1987C150.284 48.8057 148.566 49.9425 146.909 51.5989C145.233 53.2758 144.065 55.143 143.396 57.2109C142.727 59.2787 142.666 61.362 143.206 63.4916C143.736 65.616 144.95 67.6221 146.837 69.5151L147.326 70.0037C149.219 71.8967 151.22 73.1055 153.355 73.6405C155.474 74.1754 157.568 74.1137 159.635 73.4501C161.703 72.7866 163.571 71.6138 165.247 69.9369C166.924 68.26 168.041 66.5625 168.642 64.7878C169.249 63.0183 169.414 61.254 169.131 59.505C168.858 57.7561 168.246 56.1101 167.315 54.572L162.033 57.8178Z" fill="#00E7F9"/>
<path d="M139.183 41.826C136.318 42.793 135.536 43.5749 134.569 46.4401C133.602 43.5749 132.82 42.793 129.955 41.826C132.82 40.8589 133.602 40.0771 134.569 37.2119C135.536 40.0771 136.318 40.8589 139.183 41.826Z" fill="#00E7F9"/>
<path d="M66.3523 47.9605C64.2073 47.9708 62.0623 47.9759 59.9121 47.9811C58.8885 47.9811 57.5922 47.9811 56.5686 47.9862C57.0469 47.7856 58.0243 47.2969 58.8062 46.2424C59.9121 44.7558 59.8761 43.1561 59.8504 42.6829C59.8401 42.081 59.8349 41.474 59.8247 40.8722C59.8144 39.8691 59.7989 38.8661 59.7886 37.8682H59.1251C57.978 37.8682 56.9801 38.1202 56.1365 38.6346C55.6118 38.9587 55.2723 39.293 55.1951 39.3702C54.2178 40.3681 53.9606 41.6181 53.8011 42.3845C53.7394 42.6931 53.7034 42.9555 53.6828 43.1304C53.5594 43.7065 53.1787 45.0696 51.9751 46.2373C50.2107 47.9502 48.004 47.9605 47.541 47.9554V53.0993H53.6777V66.9569C53.6777 67.0341 53.6777 67.0958 53.688 67.1627C53.724 68.7521 54.2178 70.0175 55.1797 70.9897C56.1879 71.9979 57.5048 72.502 59.1199 72.502H66.0488V67.3479H61.2958C60.4265 67.3479 59.9687 66.9106 59.9224 66.0516C59.9121 65.995 59.9121 65.9384 59.9121 65.8767V53.1044H66.6352C66.5426 51.3915 66.45 49.6734 66.3574 47.9605H66.3523Z" fill="white"/>
<path d="M10.7972 11.2023C12.4947 10.5593 13.1582 9.71057 13.4411 9.03672C13.8218 8.13139 13.6829 7.1129 14.4596 6.54193C14.8043 6.30016 15.1901 6.23329 15.4473 6.223H19.7064V1.0791H13.2714C12.1243 1.0791 11.1264 1.33115 10.2828 1.84554C9.79925 2.1336 9.48033 2.44224 9.34144 2.58112C8.40525 3.52245 8.09147 4.60782 7.96802 5.15822C7.96802 5.58002 7.88572 7.73531 6.12136 9.45337C4.2747 11.2486 1.98566 11.192 1.59473 11.1714V16.3153H7.83428V35.7181H14.0738V16.3153H20.5089V11.1714C17.2785 11.1817 14.0378 11.192 10.8075 11.1972L10.7972 11.2023Z" fill="white"/>
<path d="M46.0319 25.3064C46.9578 25.327 47.8888 25.3527 48.8199 25.3784C49.7561 25.4042 50.6871 25.4299 51.613 25.4556C51.7005 25.1675 51.8085 24.6686 51.7365 24.0565C51.6233 23.1151 51.1501 22.503 51.0575 22.3898C50.3065 21.4485 49.2468 21.2582 48.9742 21.217L46.0422 21.0216C46.0422 20.6769 46.0319 20.3374 46.0319 19.9928V19.9259C46.0319 19.0875 45.9496 15.4713 43.2027 12.8942C40.7542 10.5949 37.673 10.4766 35.5383 10.4766C33.4036 10.4766 31.6341 10.7955 30.1681 11.4385C28.7021 12.0815 27.5241 12.9251 26.6548 13.959C25.7752 15.0032 25.1425 16.1451 24.7516 17.4054L30.487 19.3292C30.7185 18.2078 31.2174 17.2922 31.9736 16.5824C32.74 15.8725 33.8871 15.5176 35.4354 15.5176C36.9838 15.5176 38.1823 15.8931 38.8973 16.639C39.6277 17.3745 39.9878 18.3313 39.9878 19.4784V20.8672H33.2544C31.4078 20.8672 29.772 21.1553 28.3317 21.7263C26.8914 22.3075 25.7752 23.1666 24.9625 24.3034C24.16 25.4402 23.7588 26.8547 23.7588 28.5317C23.7588 30.2086 24.16 31.6386 24.9625 32.8165C25.7752 33.9842 26.8657 34.8792 28.2597 35.4862C29.6434 36.0932 31.2123 36.4018 32.9561 36.4018C34.6999 36.4018 36.027 36.1498 37.0198 35.656C38.0074 35.1621 38.7378 34.5912 39.1956 33.9585C39.6637 33.3155 39.9518 32.7908 40.0907 32.3999H41.0269V32.4462C41.0269 33.4338 41.4281 34.2311 42.2151 34.8175C43.0073 35.4142 44.0155 35.7125 45.2397 35.7125H49.396V30.5584H47.4156C46.9886 30.5584 46.6594 30.4555 46.428 30.2394C45.9341 29.7816 46.0267 29.1283 46.037 29.0821V25.3013L46.0319 25.3064ZM39.9929 26.0163C39.9929 27.6315 39.4425 28.9277 38.3315 29.8999C37.2307 30.8721 35.8007 31.3557 34.0569 31.3557C32.74 31.3557 31.7318 31.0779 31.0426 30.5172C30.343 29.9565 29.9983 29.2312 29.9983 28.3413C29.9983 27.4514 30.3327 26.7519 30.986 26.2581C31.6495 25.7642 32.5549 25.5225 33.7122 25.5225H39.9981V26.0163H39.9929Z" fill="white"/>
<path d="M88.3664 14.6635C87.6205 13.3569 86.6277 12.3847 85.3983 11.7417C84.1586 11.0987 82.7852 10.7695 81.2626 10.7695C79.3851 10.7695 77.9294 11.1245 76.9109 11.8137C75.8821 12.503 75.0899 13.3826 74.5293 14.4371H73.6445C73.0838 13.3466 72.2711 12.467 71.2166 11.788C70.1621 11.1142 68.7629 10.7695 67.014 10.7695C65.3988 10.7695 64.0923 11.0782 63.0995 11.6954C62.1119 12.3024 61.402 13.0226 60.9699 13.8404H60.0852V11.1708H53.9434V35.7175H60.1829V21.2168C60.1829 19.5347 60.5738 18.2385 61.3506 17.3331C62.1273 16.4278 63.2178 15.97 64.6375 15.97C65.8978 15.97 66.87 16.3044 67.5593 16.9885C68.2486 17.6624 68.5932 18.6809 68.5932 20.0337V35.7175H74.8327V21.2168C74.8327 19.5347 75.2237 18.2385 76.0004 17.3331C76.7771 16.4278 77.8676 15.97 79.2874 15.97C80.5373 15.97 81.5198 16.3044 82.2091 16.9885C82.8984 17.6624 83.243 18.6809 83.243 20.0337V35.7175H89.4826V19.581C89.4826 17.6006 89.1071 15.9597 88.3715 14.6583L88.3664 14.6635Z" fill="white"/>
<path d="M120.291 23.4598C120.198 22.1327 120.013 21.0062 119.73 20.07L114.242 21.7778C114.586 22.7397 114.746 23.7736 114.699 24.895C114.653 26.0164 114.01 27.1943 112.765 28.4237C111.562 29.6377 110.163 30.2909 108.573 30.3835C106.984 30.4761 105.574 29.9514 104.334 28.8146L116.968 16.1812L115.466 14.6792C113.691 12.9046 111.788 11.6906 109.741 11.0579C107.704 10.4149 105.672 10.3378 103.655 10.8419C101.639 11.346 99.7821 12.4468 98.0795 14.1494C96.3511 15.8777 95.1938 17.7604 94.6228 19.8077C94.0518 21.8447 94.0827 23.8971 94.6999 25.9598C95.3172 28.0225 96.5415 29.9669 98.3521 31.7878L98.7739 32.2096C100.595 34.0306 102.544 35.2445 104.617 35.8515C106.701 36.4585 108.763 36.4688 110.816 35.8875C112.863 35.3011 114.756 34.1437 116.484 32.4257C118.074 30.8362 119.128 29.2776 119.648 27.7499C120.173 26.2273 120.383 24.7973 120.291 23.465V23.4598ZM99.9673 21.7778C100.06 20.4712 100.703 19.2264 101.891 18.033C103.028 16.8962 104.262 16.2687 105.579 16.1658C106.906 16.0629 108.11 16.4641 109.201 17.3695L101.089 25.4917C100.25 24.324 99.8747 23.0843 99.9673 21.7778Z" fill="white"/>
<path d="M95.1371 53.0586C94.0158 51.1708 92.488 49.746 90.5333 48.7532C88.5889 47.7656 86.3976 47.2666 83.9491 47.2666C81.5006 47.2666 79.3196 47.7604 77.3649 48.7532C75.4206 49.7408 73.8928 51.1708 72.7714 53.0586C71.6398 54.9362 71.0791 57.1943 71.0791 59.8383V60.6305C71.0791 63.2641 71.6398 65.5223 72.7714 67.4101C73.8928 69.2876 75.4206 70.7228 77.3649 71.7156C79.3145 72.7032 81.5109 73.2022 83.9491 73.2022C86.3874 73.2022 88.5889 72.7083 90.5333 71.7156C92.4829 70.7279 94.0158 69.2876 95.1371 67.4101C96.2585 65.5223 96.8192 63.2641 96.8192 60.6305V59.8383C96.8192 57.1943 96.2585 54.9362 95.1371 53.0586ZM95.1731 60.1212C88.2083 62.472 86.305 64.3752 83.9543 71.3401C81.6035 64.3752 79.7003 62.472 72.7354 60.1212C79.7003 57.7704 81.6035 55.8672 83.9543 48.9024C86.305 55.8672 88.2083 57.7704 95.1731 60.1212Z" fill="white"/>
<path d="M125.13 52.4874C124.338 50.9545 123.227 49.7509 121.786 48.8764C120.346 47.9968 118.68 47.5596 116.761 47.5596C114.549 47.5596 112.903 47.9505 111.812 48.7272C110.727 49.504 109.981 50.3218 109.59 51.1757H108.695V47.9659H102.559V72.5126H108.798V60.0387C108.798 57.7599 109.323 55.9853 110.377 54.7147C111.442 53.4442 112.929 52.8115 114.832 52.8115C116.524 52.8115 117.81 53.2796 118.726 54.2003C119.631 55.1263 120.079 56.5048 120.079 58.3566V72.5126H126.318V57.8628C126.318 55.8155 125.927 54.0255 125.13 52.4926V52.4874Z" fill="white"/>
<path d="M133.047 47.96V72.5067H139.286V47.96H133.047Z" fill="white"/>
<path d="M163.627 57.1479C164.558 58.4596 165.026 59.8022 165.026 61.1756C165.026 62.549 164.358 63.9019 163.025 65.2341C162.141 66.1189 161.148 66.7259 160.052 67.0551C158.962 67.3791 157.825 67.3637 156.657 67.0139C155.49 66.6641 154.358 65.944 153.262 64.8483L152.912 64.4986C151.817 63.4029 151.092 62.2661 150.742 61.0984C150.397 59.9359 150.387 58.7991 150.711 57.7137C151.035 56.6129 151.642 55.6202 152.527 54.7354C153.417 53.8455 154.322 53.2694 155.248 53.0071C156.163 52.7345 157.069 52.719 157.954 52.9556C158.843 53.1871 159.682 53.6038 160.474 54.2107L163.828 49.036C162.316 47.9866 160.685 47.3179 158.931 47.0401C157.187 46.7624 155.423 46.927 153.648 47.5288C151.879 48.1358 150.161 49.2726 148.504 50.9289C146.827 52.6059 145.66 54.4731 144.991 56.5409C144.322 58.6088 144.26 60.6921 144.801 62.8216C145.33 64.9461 146.544 66.9522 148.432 68.8451L148.921 69.3338C150.814 71.2268 152.815 72.4356 154.949 72.9706C157.069 73.5055 159.162 73.4438 161.23 72.7802C163.298 72.1167 165.165 70.9439 166.842 69.267C168.519 67.59 169.635 65.8925 170.237 64.1179C170.844 62.3484 171.009 60.584 170.726 58.8351C170.453 57.0862 169.841 55.4401 168.91 53.9021L163.627 57.1479Z" fill="white"/>
<path d="M140.778 41.1551C137.913 42.1221 137.131 42.904 136.164 45.7692C135.197 42.904 134.415 42.1221 131.55 41.1551C134.415 40.188 135.197 39.4062 136.164 36.541C137.131 39.4062 137.913 40.188 140.778 41.1551Z" fill="white"/>
</svg>
